<svg xmlns="http://www.w3.org/2000/svg" width="1920" height="1080" viewBox="0 0 1920 1080">
<title>In the Bushes EP01 original nighttime opening background</title>
<rect width="1920" height="1080" fill="#080b12"/>
<circle cx="1540" cy="170" r="82" fill="#d8d5c2" opacity=".85"/>
<g fill="#202735" opacity=".7"><rect x="120" y="470" width="120" height="300"/><rect x="290" y="420" width="180" height="350"/><rect x="520" y="500" width="140" height="270"/><rect x="720" y="390" width="210" height="380"/><rect x="1010" y="450" width="130" height="320"/><rect x="1190" y="360" width="240" height="410"/><rect x="1490" y="440" width="170" height="330"/><rect x="1720" y="400" width="120" height="370"/></g>
<path d="M0 770 Q500 730 960 790 T1920 760 L1920 1080 L0 1080Z" fill="#121912"/>
<g fill="#263925" stroke="#101710" stroke-width="18"><circle cx="1480" cy="720" r="210"/><circle cx="1640" cy="690" r="245"/><circle cx="1800" cy="740" r="200"/><circle cx="1560" cy="830" r="230"/></g>
<g fill="#596c52" opacity=".3"><circle cx="1450" cy="650" r="55"/><circle cx="1580" cy="590" r="45"/><circle cx="1700" cy="680" r="60"/></g>
<text x="70" y="1010" fill="#727b86" font-family="sans-serif" font-size="22">EP01 • OPENING BACKGROUND • 1920×1080 • ORIGINAL SHOW ART</text>
</svg>
