<svg xmlns="http://www.w3.org/2000/svg" width="1600" height="900" viewBox="0 0 1600 900">
<title>In the Bushes EP01 teen character personality design v2</title>
<rect width="1600" height="900" fill="#11151b"/>
<text x="800" y="70" fill="#f2f2f2" font-family="sans-serif" font-size="40" font-weight="700" text-anchor="middle">IN THE BUSHES — TEEN CAST / DESIGN V2</text>
<text x="800" y="108" fill="#8d948e" font-family="sans-serif" font-size="20" text-anchor="middle">Original low-fi animated characters • readable silhouettes • clothing + body language carry personality</text>

<!-- Teen 01: impulsive -->
<g transform="translate(360 360)" stroke="#0b0d12" stroke-width="10" stroke-linecap="round" stroke-linejoin="round">
  <circle cx="0" cy="-125" r="52" fill="#c9c1b5"/>
  <path d="M-48 -142 Q-25 -205 5 -168 Q38 -210 52 -140" fill="#272d35"/>
  <path d="M-70 -70 Q0 -105 70 -70 L92 105 Q0 145 -92 105 Z" fill="#4a5664"/>
  <path d="M-54 -45 L-108 28 M54 -45 L122 8" fill="none"/>
  <path d="M-72 105 L-96 250 M72 105 L120 245" fill="none" stroke-width="24"/>
  <path d="M-120 250 L-75 250 M95 245 L145 245" fill="none" stroke-width="22"/>
  <path d="M-12 -76 L-12 103" fill="none" stroke="#8e98a3" stroke-width="6"/>
  <path d="M-28 -90 L28 -90" fill="none" stroke="#d5d0c7" stroke-width="5"/>
  <circle cx="-18" cy="-125" r="5" fill="#0b0d12" stroke="none"/><circle cx="18" cy="-125" r="5" fill="#0b0d12" stroke="none"/>
  <path d="M-15 -102 Q0 -94 15 -102" fill="none" stroke-width="6"/>
  <text x="0" y="320" fill="#f2f2f2" stroke="none" font-family="sans-serif" font-size="28" text-anchor="middle">01 — IMPULSIVE</text>
  <text x="0" y="350" fill="#8d948e" stroke="none" font-family="sans-serif" font-size="18" text-anchor="middle">hoodie • forward lean • big stride • acts first</text>
</g>

<!-- Teen 02: cautious -->
<g transform="translate(800 370)" stroke="#0b0d12" stroke-width="10" stroke-linecap="round" stroke-linejoin="round">
  <path d="M-52 -160 Q0 -205 52 -160 L45 -95 L-45 -95 Z" fill="#303944"/>
  <circle cx="0" cy="-125" r="48" fill="#d3cabe"/>
  <path d="M-78 -65 Q0 -100 78 -65 L68 115 Q0 145 -68 115 Z" fill="#8a6f58"/>
  <path d="M-58 -35 L-88 38 M58 -35 L95 62" fill="none" stroke-width="18"/>
  <path d="M-62 112 L-88 245 M62 112 L90 235" fill="none" stroke-width="25"/>
  <path d="M-108 245 L-68 245 M70 235 L112 235" fill="none" stroke-width="22"/>
  <path d="M-42 10 Q0 28 42 10" fill="none" stroke="#c8a88d" stroke-width="7"/>
  <path d="M-20 -125 Q0 -132 20 -125" fill="none" stroke="#0b0d12" stroke-width="5"/>
  <circle cx="-17" cy="-111" r="5" fill="#0b0d12" stroke="none"/><circle cx="17" cy="-111" r="5" fill="#0b0d12" stroke="none"/>
  <text x="0" y="320" fill="#f2f2f2" stroke="none" font-family="sans-serif" font-size="28" text-anchor="middle">02 — CAUTIOUS</text>
  <text x="0" y="350" fill="#8d948e" stroke="none" font-family="sans-serif" font-size="18" text-anchor="middle">oversized jacket • guarded stance • checks danger</text>
</g>

<!-- Teen 03: deadpan -->
<g transform="translate(1230 365)" stroke="#0b0d12" stroke-width="10" stroke-linecap="round" stroke-linejoin="round">
  <circle cx="0" cy="-125" r="50" fill="#bfae9e"/>
  <path d="M-48 -145 Q0 -185 48 -145" fill="#1f242a"/>
  <path d="M-72 -70 Q0 -88 72 -70 L82 120 Q0 142 -82 120 Z" fill="#566c63"/>
  <path d="M-58 -35 L-112 5 M58 -35 L105 28" fill="none" stroke-width="16"/>
  <path d="M-64 118 L-72 248 M64 118 L72 248" fill="none" stroke-width="25"/>
  <path d="M-95 248 L-52 248 M52 248 L98 248" fill="none" stroke-width="22"/>
  <path d="M-28 -125 L28 -125" fill="none" stroke-width="6"/>
  <path d="M-12 -101 L12 -101" fill="none" stroke-width="5"/>
  <circle cx="-17" cy="-111" r="4" fill="#0b0d12" stroke="none"/><circle cx="17" cy="-111" r="4" fill="#0b0d12" stroke="none"/>
  <text x="0" y="320" fill="#f2f2f2" stroke="none" font-family="sans-serif" font-size="28" text-anchor="middle">03 — DEADPAN</text>
  <text x="0" y="350" fill="#8d948e" stroke="none" font-family="sans-serif" font-size="18" text-anchor="middle">oversized tee • relaxed posture • dry reactions</text>
</g>

<text x="800" y="820" fill="#aab0b7" font-family="sans-serif" font-size="19" text-anchor="middle">DESIGN RULE: not stick figures — simplified animated people with distinct silhouettes, clothes, proportions, poses and acting.</text>
</svg>